<!DOCTYPE svg PUBLIC "-//W3C//DTD SVG 1.1//EN" "http://www.w3.org/Graphics/SVG/1.1/DTD/svg11.dtd">
<!-- Uploaded to: SVG Repo, www.svgrepo.com, Transformed by: SVG Repo Mixer Tools -->
<svg fill="#ffffff" height="800px" width="800px" version="1.1" id="Layer_1" xmlns="http://www.w3.org/2000/svg" xmlns:xlink="http://www.w3.org/1999/xlink" viewBox="0 0 512.001 512.001" xml:space="preserve">
<g id="SVGRepo_bgCarrier" stroke-width="0"/>
<g id="SVGRepo_tracerCarrier" stroke-linecap="round" stroke-linejoin="round"/>
<g id="SVGRepo_iconCarrier"> <g> <g> <path d="M278.164,208.352l-24.537-40.566l-20.834-32.612V64.612c0-10.11-7.769-18.809-17.868-19.285 c-10.782-0.508-19.683,8.083-19.683,18.754v71.091L2.953,436.164c-2.18,3.413-3.103,7.262-2.916,11.021 C0.028,447.43,0,447.671,0,447.918c0,10.369,8.406,18.775,18.775,18.775h104.026c2.63,0,5.067-1.377,6.425-3.629L278.169,216.11 C279.608,213.723,279.606,210.736,278.164,208.352z"/> </g> </g> <g> <g> <path d="M427.538,455.306L308.894,259.158c-2.919-4.829-9.927-4.825-12.844,0.009l-118.3,196.148 c-3.017,5,0.586,11.378,6.425,11.378h218.736h6.347h11.86C426.963,466.693,430.564,460.306,427.538,455.306z"/> </g> </g> <g> <g> <path d="M511.977,447.482c-0.009-0.38-0.026-0.76-0.058-1.14c-0.021-0.254-0.049-0.504-0.08-0.755 c-0.044-0.353-0.096-0.703-0.161-1.055c-0.05-0.277-0.108-0.551-0.17-0.824c-0.071-0.312-0.151-0.622-0.24-0.932 c-0.086-0.304-0.18-0.603-0.282-0.901c-0.093-0.27-0.19-0.538-0.295-0.806c-0.129-0.327-0.267-0.648-0.412-0.966 c-0.108-0.234-0.219-0.467-0.337-0.7c-0.171-0.335-0.354-0.662-0.544-0.986c-0.076-0.129-0.136-0.263-0.215-0.391L330.64,149.953 v-46.698c0-10.11-7.769-18.809-17.868-19.285c-10.782-0.508-19.683,8.083-19.683,18.754v46.716 c-2.442,2.442-2.901,6.235-1.114,9.189l184.149,304.444c1.359,2.247,3.794,3.62,6.42,3.62h10.621c0.026,0,0.053,0.003,0.078,0.003 c0.581,0,1.162-0.038,1.742-0.091c0.108-0.01,0.214-0.021,0.32-0.033c1.11-0.123,2.217-0.345,3.306-0.672 c0.151-0.045,0.3-0.094,0.451-0.144c0.393-0.129,0.782-0.272,1.169-0.428c0.138-0.055,0.278-0.106,0.414-0.165 c0.472-0.204,0.939-0.428,1.399-0.675c0.154-0.083,0.302-0.173,0.453-0.259c0.205-0.118,0.414-0.227,0.617-0.353 c0.091-0.056,0.171-0.123,0.26-0.18c0.297-0.192,0.585-0.394,0.87-0.602c0.233-0.169,0.466-0.338,0.69-0.516 c0.23-0.184,0.451-0.379,0.672-0.573c0.252-0.222,0.503-0.442,0.741-0.673c0.176-0.173,0.342-0.354,0.511-0.533 c0.253-0.268,0.504-0.534,0.74-0.814c0.15-0.179,0.289-0.368,0.434-0.553c0.224-0.289,0.449-0.577,0.656-0.877 c0.151-0.219,0.287-0.448,0.429-0.673c0.173-0.277,0.35-0.552,0.508-0.836c0.156-0.279,0.294-0.569,0.436-0.857 c0.12-0.244,0.245-0.486,0.354-0.735c0.144-0.328,0.268-0.665,0.393-1.003c0.084-0.227,0.174-0.449,0.249-0.678 c0.111-0.34,0.204-0.69,0.297-1.039c0.065-0.244,0.134-0.487,0.189-0.735c0.071-0.318,0.124-0.642,0.179-0.966 c0.05-0.298,0.1-0.595,0.136-0.895c0.033-0.277,0.053-0.555,0.073-0.835c0.026-0.36,0.049-0.72,0.055-1.081 c0.001-0.103,0.015-0.203,0.015-0.307C512,447.771,511.981,447.628,511.977,447.482z"/> </g> </g> </g>
</svg>